<svg viewBox="0 0 332.94 103.86" xmlns="http://www.w3.org/2000/svg"><g fill="#1d1d1b"><path d="m16.47 46.11h-16.47v-45.63h15.64c9.35 0 14 5.82 14 11.57a10.35 10.35 0 0 1 -5.2 9.06v.07a11 11 0 0 1 8.38 11c-.01 6.73-5.41 13.93-16.35 13.93zm-3-37h-2.88v9.62h4.29a4.7 4.7 0 0 0 4.43-4.71c0-2.67-1.86-4.88-5.81-4.88zm1.73 18.2h-4.61v10.21h4.41c5.06 0 7.27-1.73 7.27-5.4-.05-3.04-2.4-4.78-7.04-4.78z"/><path d="m38 46.11v-45.63h27.42l-2.56 8.52h-14.26v9.55h14.33v8.59h-14.33v10.45h16.68v8.52z"/><path d="m84.39 46.8a26.6 26.6 0 0 1 -15.09-4.5l4-7.55a18.58 18.58 0 0 0 10.53 3.67c3.11 0 6.57-1.11 6.57-4.22 0-5.47-11.14-6.37-16.61-12.74a11.84 11.84 0 0 1 -2.79-8.1c0-6.99 5.57-13.36 16-13.36a25 25 0 0 1 11.93 2.84l-.21 8.86c-4.22-2.15-7.34-3.39-11.07-3.39-3.19 0-5.47 1.45-5.47 3.67 0 7.27 19.45 6.43 19.45 20.9 0 8.66-7.63 13.92-17.24 13.92z"/><path d="m140.05 9h-12.05v37.11h-10.72v-37.11h-13.37v-8.52h38.36z"/><path d="m146.08 46.11v-45.63h10.59v45.63z"/><path d="m198 46.11-19-24c-1.45-1.87-2.77-3.67-4.29-5.67h-.14a63.19 63.19 0 0 1 .21 6.51v23.16h-10.49v-45.63h10.59l18.34 23.06c1.46 1.87 2.77 3.6 4.09 5.54h.14c-.14-2.36-.14-5.68-.14-7.48v-21.12h10.52v45.63z"/><path d="m238.78 46.45h-8.1l-18.9-45.9h11.63l8.72 22.71c1.25 3.18 2.29 6.16 3.19 8.79h.13c.84-2.49 1.88-5.26 3.19-8.44l9.69-23.06h10.8z"/><path d="m263.08 46.11v-45.63h27.42l-2.56 8.52h-14.26v9.55h14.32v8.59h-14.32v10.45h16.68v8.52z"/><path d="m321 46.11c-6.85-11.91-9.28-16.48-10.8-17.1h-3.2v17.1h-10.62v-45.63h14.26c12.53 0 17 6.17 17 13.3 0 5.81-4.08 9.83-8.09 11.7v.07c2.49 1.45 6.71 8.93 13.43 20.56zm-10-37h-4v12.35h3.88a6.26 6.26 0 0 0 6.34-6.46c0-3.37-2.49-5.86-6.3-5.86z"/><path d="m235 82.89a4 4 0 0 1 -2.73 1c-1.6 0-2.47-.87-2.47-2.11s.93-2 3-2.06l2.18-.06zm4.2 3.69a15 15 0 0 1 -.29-4v-6c0-4-2.28-5.52-6-5.52a10 10 0 0 0 -5.91 1.67l1.25 2.4a7.44 7.44 0 0 1 3.87-1.13c1.59 0 2.88.74 2.88 2.57v.43l-2.7.1c-3.88.12-6.35 1.82-6.35 5a4.73 4.73 0 0 0 5 4.88 6.25 6.25 0 0 0 4.38-1.67l.65 1.35z"/><path d="m248.66 86.9c-4.94 0-7.47-3.56-7.47-7.83a7.7 7.7 0 0 1 7.85-8 8.16 8.16 0 0 1 4.33 1l-.06 3.15a6 6 0 0 0 -3.82-1.22c-2.6 0-4.46 2-4.46 4.87 0 2.6 1.42 4.91 4.43 4.91a6.86 6.86 0 0 0 3.59-1.06l1 2.53a10 10 0 0 1 -5.39 1.65z"/><path d="m262.32 86.9c-4.94 0-7.47-3.56-7.47-7.83a7.7 7.7 0 0 1 7.85-8 8.16 8.16 0 0 1 4.33 1l-.03 3.19a6 6 0 0 0 -3.85-1.26c-2.6 0-4.46 2-4.46 4.87 0 2.6 1.41 4.91 4.43 4.91a6.86 6.86 0 0 0 3.59-1.06l1 2.53a10 10 0 0 1 -5.39 1.65z"/><path d="m271.94 69.07a2.33 2.33 0 1 1 2.41-2.34 2.37 2.37 0 0 1 -2.41 2.34zm-1.94 17.51v-15.17h3.85v15.17z"/><path d="m287.46 79c0 2.85-1.22 4.94-3.63 4.94s-3.72-2-3.72-4.94 1.19-4.88 3.62-4.88 3.73 1.94 3.73 4.88zm3.94 0a8.23 8.23 0 0 0 -2-5.71 7.54 7.54 0 0 0 -5.58-2.18 7.42 7.42 0 0 0 -5.39 2.15 8.23 8.23 0 0 0 -2.21 5.86 8 8 0 0 0 2.32 5.88 8.06 8.06 0 0 0 10.71-.28 8.05 8.05 0 0 0 2.15-5.72z"/><path d="m303.62 86.58v-8.92c0-1.57-.3-3.3-2.25-3.3a6.63 6.63 0 0 0 -3.85 1.64v10.58h-3.85v-15.17h3.27l.42 1.64a8.6 8.6 0 0 1 5.32-2c2.32 0 4.78 1.37 4.78 5.45v10.08z"/><path d="m318.66 82.89a4 4 0 0 1 -2.73 1c-1.6 0-2.47-.87-2.47-2.11s.93-2 3-2.06l2.19-.06zm4.2 3.69a14.86 14.86 0 0 1 -.3-4v-6c0-4-2.27-5.52-6-5.52a10 10 0 0 0 -5.93 1.67l1.25 2.4a7.4 7.4 0 0 1 3.89-1.13c1.6 0 2.89.74 2.89 2.57v.43l-2.7.1c-3.88.12-6.35 1.82-6.35 5a4.73 4.73 0 0 0 5 4.88 6.26 6.26 0 0 0 4.39-1.75l.65 1.35z"/></g><g fill="#f5333f"><path d="m219.46 79.56c-.28-1.12-.54-2.24-.78-3.35a45.84 45.84 0 0 1 -1-6c-.05-.57-.07-1.1-.09-1.64 0-.85-.05-1.67 0-2.45a36.18 36.18 0 0 1 .28-3.84c.19-1.51.51-2.8.75-3.9-.24.19-.49.38-.73.55a32.8 32.8 0 0 0 -.92 3.37c-.21 1-.4 2.06-.56 3.28a19.49 19.49 0 0 1 -3.25-1.74v1.57a26.3 26.3 0 0 0 3 2.15 43.25 43.25 0 0 0 -.07 6c.05.68.1 1.36.17 2a22.11 22.11 0 0 1 -6.44-2.84v1.58a27.64 27.64 0 0 0 6.75 4.08c.33 2.27.74 4.52 1.11 6.8a24.68 24.68 0 0 1 -10.12-3.6v1.57a25.86 25.86 0 0 0 10.59 5.3 44.38 44.38 0 0 1 -.23 15.46l3.72-2.18c1.54-8.17-.49-15.32-2.18-22.17z"/><path d="m215.37 95c-4.79-.09-13.84-4.78-16.94-11.35l-.34-.72.46-.66a13.12 13.12 0 0 0 2.4-7.66 16.55 16.55 0 0 0 -.58-3.93s-.16-.67-.23-.93l.81-.54c2-1.35 5.51-4.6 6-11.21 0 0 .05-.77.08-1.09l1.08-.16a17.6 17.6 0 0 0 9.58-4.72l.94-.91.94.91a17.66 17.66 0 0 0 9.58 4.72l1.09.16v1.09c0 4.95 2.23 7 3.08 7.57l-.77.66a7.58 7.58 0 0 1 -4.94-7 20.79 20.79 0 0 1 -8.76-4.23l-.18-.23-.19.23a20.4 20.4 0 0 1 -8.72 4.23h-.2v.2a16.76 16.76 0 0 1 -6.17 11.36l-.14.11v.18a17.53 17.53 0 0 1 .44 3.48 15.73 15.73 0 0 1 -2.33 8.44l-.09.14.09.16c-.22 4.74 10.28 10.8 13.92 11z"/></g></svg>