<?xml version="1.0" encoding="utf-8"?>
<!-- Generator: Adobe Illustrator 26.0.3, SVG Export Plug-In . SVG Version: 6.00 Build 0)  -->
<svg version="1.1" id="Capa_1" xmlns="http://www.w3.org/2000/svg" xmlns:xlink="http://www.w3.org/1999/xlink" x="0px" y="0px"
	 viewBox="0 0 34 33" style="enable-background:new 0 0 34 33;" xml:space="preserve">
<style type="text/css">
	.st0{fill:#FFFFFF;}
</style>
<path class="st0" d="M24.6,3.1c-0.3-1.3-1.4-2.2-2.8-2.2c-0.3,0-0.6,0.2-0.6,0.5c0,0.3,0.3,0.5,0.6,0.5c0.9,0,1.7,0.7,1.7,1.6
	s-0.8,1.6-1.7,1.6c-0.3,0-0.6,0.2-0.6,0.5c0,0.3,0.3,0.5,0.6,0.5c1.4,0,2.5-0.9,2.8-2.2H32v4.9H1.5V4.2h7.9h1.7
	c0.3,0,0.6-0.2,0.6-0.5s-0.3-0.5-0.6-0.5h-1C10.3,2.4,10.9,2,11.7,2c0.9,0,1.7,0.7,1.7,1.6s-0.8,1.6-1.7,1.6c-0.3,0-0.6,0.2-0.6,0.5
	c0,0.3,0.3,0.5,0.6,0.5c1.6,0,2.8-1.2,2.8-2.7s-1.3-2.7-2.8-2.7c-1.4,0-2.5,0.9-2.8,2.2H0.4v7.1v22h32.8v-22V3.1H24.6z M32,31.1H1.5
	V10.2H32V31.1z"/>
<path class="st0" d="M15,2c0.9,0,1.7,0.7,1.7,1.6S16,5.3,15,5.3c-0.3,0-0.6,0.2-0.6,0.5c0,0.3,0.3,0.5,0.6,0.5
	c1.6,0,2.8-1.2,2.8-2.7S16.6,0.9,15,0.9c-0.3,0-0.6,0.2-0.6,0.5C14.5,1.7,14.7,2,15,2z"/>
<path class="st0" d="M18.4,2c0.9,0,1.7,0.7,1.7,1.6s-0.8,1.6-1.7,1.6c-0.3,0-0.6,0.2-0.6,0.5c0,0.3,0.3,0.5,0.6,0.5
	c1.6,0,2.8-1.2,2.8-2.7S20,0.9,18.4,0.9c-0.3,0-0.6,0.2-0.6,0.5C17.9,1.7,18.1,2,18.4,2z"/>
<path class="st0" d="M5.4,14.6h12.4c0.3,0,0.6-0.2,0.6-0.6s-0.3-0.5-0.6-0.5H5.4c-0.3,0-0.6,0.2-0.6,0.5S5.1,14.6,5.4,14.6z"/>
<path class="st0" d="M28,22.3h-8.5c-0.3,0-0.6,0.2-0.6,0.5s0.3,0.5,0.6,0.5H28c0.3,0,0.6-0.2,0.6-0.5S28.4,22.3,28,22.3z"/>
<path class="st0" d="M5.4,19h5.7c0.3,0,0.6-0.2,0.6-0.5c0-0.3-0.3-0.5-0.6-0.5H5.4c-0.3,0-0.6,0.2-0.6,0.5C4.9,18.8,5.1,19,5.4,19z"
	/>
<path class="st0" d="M28,26.7h-5.7c-0.3,0-0.6,0.2-0.6,0.5s0.3,0.5,0.6,0.5H28c0.3,0,0.6-0.2,0.6-0.5S28.4,26.7,28,26.7z"/>
<path class="st0" d="M16.2,18.5c0,0.3,0.3,0.5,0.6,0.5h8.5c0.3,0,0.6-0.2,0.6-0.5c0-0.3-0.3-0.5-0.6-0.5h-8.5
	C16.4,17.9,16.2,18.2,16.2,18.5z"/>
<path class="st0" d="M14.3,18.9c0.1-0.1,0.2-0.2,0.2-0.4c0-0.1-0.1-0.3-0.2-0.4c-0.2-0.2-0.6-0.2-0.8,0c-0.1,0.1-0.2,0.2-0.2,0.4
	c0,0.1,0.1,0.3,0.2,0.4c0.1,0.1,0.3,0.2,0.4,0.2C14.1,19,14.2,19,14.3,18.9z"/>
<path class="st0" d="M7.7,22.9c0,0.3,0.3,0.5,0.6,0.5h8.5c0.3,0,0.6-0.2,0.6-0.5s-0.3-0.5-0.6-0.5H8.3C8,22.3,7.7,22.6,7.7,22.9z"/>
<path class="st0" d="M5.4,23.4c0.1,0,0.3-0.1,0.4-0.2C5.9,23.2,6,23,6,22.9c0-0.1-0.1-0.3-0.2-0.4c-0.2-0.2-0.6-0.2-0.8,0
	c-0.1,0.1-0.2,0.2-0.2,0.4c0,0.1,0.1,0.3,0.2,0.4C5.1,23.4,5.3,23.4,5.4,23.4z"/>
<path class="st0" d="M28,19c0.1,0,0.3-0.1,0.4-0.2c0.1-0.1,0.2-0.2,0.2-0.4c0-0.1-0.1-0.3-0.2-0.4c-0.2-0.2-0.6-0.2-0.8,0
	c-0.1,0.1-0.2,0.2-0.2,0.4c0,0.1,0.1,0.3,0.2,0.4C27.8,19,27.9,19,28,19z"/>
<path class="st0" d="M19.6,26.7H5.4c-0.3,0-0.6,0.2-0.6,0.5s0.3,0.5,0.6,0.5h14.1c0.3,0,0.6-0.2,0.6-0.5S19.9,26.7,19.6,26.7z"/>
</svg>
