<svg id="Capa_1" data-name="Capa 1" xmlns="http://www.w3.org/2000/svg" viewBox="0 0 110.77 28"><defs><style>.cls-1{fill:#e3b873;}</style></defs><path class="cls-1" d="M71.38,9,47.26,0a.6.6,0,0,0-.77.35h0L43.82,7.66a.6.6,0,0,0,.35.76h0l2.79,1-.61,1.68a.58.58,0,0,0,.35.76L52.3,14l-.41,1.11a2.37,2.37,0,0,0,.85,2.75v3h-8a3,3,0,0,0-2.13-1.73V17.87a.58.58,0,0,0-.59-.59H39.6a.59.59,0,0,0-.6.59V27.4a.6.6,0,0,0,.6.6H42a.59.59,0,0,0,.59-.6V26.15a3,3,0,0,0,2.13-1.72h8V25a1.79,1.79,0,1,0,3.57,0v-6.6a2.33,2.33,0,0,0,1.17-1.3L57.89,16l5,1.85a.64.64,0,0,0,.2,0,.58.58,0,0,0,.56-.39l.22-.6a3.58,3.58,0,0,0,3.92-5l3.62-1.85a.59.59,0,0,0,.25-.8A.57.57,0,0,0,71.38,9ZM53.93,18.35l.49.18a2.42,2.42,0,0,0,.7.14v2.18H53.93ZM41.4,26.81H40.19V18.47H41.4Zm2.39-3.58a1.8,1.8,0,0,1-1.2,1.69V20.36A1.8,1.8,0,0,1,43.79,22ZM45,22H55.12v1.19H45Zm9.53,3.58a.6.6,0,0,1-.6-.6v-.59h1.19V25A.59.59,0,0,1,54.53,25.62Zm2.25-10-.42,1.12a1.19,1.19,0,0,1-1.52.71L53.71,17a1.2,1.2,0,0,1-.7-1.53h0l.41-1.12,3,1.11Zm6,.94L47.68,11l.41-1.12L57,13.15a.57.57,0,0,0,.61-.13l1.67-1.57L64,13.17Zm4-2.33a2.41,2.41,0,0,1-2.48,1.55l.92-2.51,1.51-.78A2.43,2.43,0,0,1,66.81,14.2Zm-2-2.06h-.1l-5.31-2a.6.6,0,0,0-.61.13L57.1,11.9l-12-4.39L47.4,1.36,69.69,9.62Z"/><path class="cls-1" d="M79.54,13.23H110a.77.77,0,0,1,.77.77h0a.77.77,0,0,1-.77.77H79.54a.77.77,0,0,1-.77-.77h0A.77.77,0,0,1,79.54,13.23Z"/><path class="cls-1" d="M.77,13.23H31.23A.77.77,0,0,1,32,14h0a.77.77,0,0,1-.77.77H.77A.77.77,0,0,1,0,14H0A.77.77,0,0,1,.77,13.23Z"/></svg>