<?xml version="1.0" encoding="utf-8"?>
<!-- Generator: Adobe Illustrator 26.0.3, SVG Export Plug-In . SVG Version: 6.00 Build 0)  -->
<svg version="1.1" id="Capa_1" xmlns="http://www.w3.org/2000/svg" xmlns:xlink="http://www.w3.org/1999/xlink" x="0px" y="0px"
	 viewBox="0 0 110.8 28" style="enable-background:new 0 0 110.8 28;" xml:space="preserve">
<style type="text/css">
	.st0{fill:#E3B873;}
	.st1{fill:none;stroke:#E3B873;stroke-linecap:round;stroke-linejoin:round;}
	.st2{fill:none;stroke:#E3B873;stroke-linecap:round;}
</style>
<path class="st0" d="M79.5,13.2H110c0.4,0,0.8,0.3,0.8,0.8l0,0c0,0.4-0.3,0.8-0.8,0.8H79.5c-0.4,0-0.8-0.3-0.8-0.8l0,0
	C78.8,13.6,79.1,13.2,79.5,13.2z"/>
<path class="st0" d="M0.8,13.2h30.5c0.4,0,0.8,0.3,0.8,0.8v0l0,0c0,0.4-0.3,0.8-0.8,0.8l0,0H0.8C0.3,14.8,0,14.4,0,14c0,0,0,0,0,0
	l0,0C0,13.6,0.3,13.2,0.8,13.2C0.8,13.2,0.8,13.2,0.8,13.2z"/>
<g>
	<path class="st0" d="M60.7,8.6L56,7.2C55.6,7.1,55.2,7,54.9,7v0h-5.8L38.7,3.6l0,14.5l3,1.5l1.8-4.3l2.6,1l0.7-1.7l1,1l-0.9,0.9
		c-0.3,0.3-0.5,0.7-0.5,1.2c0,0.9,0.7,1.6,1.6,1.7c0,0.9,0.7,1.6,1.6,1.6c0,0.9,0.7,1.6,1.6,1.6c0,0.9,0.8,1.6,1.7,1.6
		c0.4,0,0.9-0.2,1.2-0.5l0.9-0.9l0.4,0.4c0.3,0.3,0.7,0.5,1.2,0.5c0.9,0,1.6-0.7,1.7-1.6c0.9,0,1.6-0.7,1.6-1.6
		c0.9,0,1.6-0.7,1.6-1.6c0.9,0,1.6-0.8,1.6-1.7c0-0.1,0-0.2,0-0.2l0.8-0.8l0.6,1.2l3.4-1.7l2,3.9L72,18V4.2L60.7,8.6z M41.2,18.1
		l-1.3-0.7l0-12.3l5.9,2L41.2,18.1z M45.5,14.9l-1.6-0.6l2.8-6.9l1.5,0.5L45.5,14.9z M47.4,17.7c0-0.2,0.1-0.3,0.2-0.4l0.9-0.9
		c0.1-0.1,0.3-0.2,0.4-0.2c0.3,0,0.6,0.3,0.6,0.6c0,0.2-0.1,0.3-0.2,0.4l-0.9,0.9c-0.1,0.1-0.3,0.2-0.4,0.2
		C47.6,18.3,47.4,18,47.4,17.7z M49,19.3c0-0.2,0.1-0.3,0.2-0.4l0.9-0.9c0.1-0.1,0.3-0.2,0.4-0.2c0.3,0,0.6,0.3,0.6,0.6
		c0,0.2-0.1,0.3-0.2,0.4L50,19.7c-0.1,0.1-0.3,0.2-0.4,0.2C49.2,19.9,49,19.6,49,19.3z M50.6,20.9c0-0.2,0.1-0.3,0.2-0.4l0.9-0.9
		c0.1-0.1,0.3-0.2,0.4-0.2c0.3,0,0.6,0.3,0.6,0.6c0,0.2-0.1,0.3-0.2,0.4l-0.9,0.9c-0.1,0.1-0.3,0.2-0.4,0.2
		C50.8,21.5,50.6,21.2,50.6,20.9z M54.2,22l-0.9,0.9c-0.1,0.1-0.3,0.2-0.4,0.2c-0.3,0-0.6-0.3-0.6-0.6c0-0.2,0.1-0.3,0.2-0.4
		l0.9-0.9c0.1-0.1,0.3-0.2,0.4-0.2c0.3,0,0.6,0.3,0.6,0.6C54.3,21.7,54.3,21.9,54.2,22z M61.2,17.8c-0.2,0-0.3-0.1-0.4-0.2l-4.5-4.5
		l-0.8,0.8l4.5,4.5c0.1,0.1,0.2,0.3,0.2,0.4c0,0.3-0.3,0.6-0.6,0.6c-0.2,0-0.3-0.1-0.4-0.2l-4.5-4.5l-0.8,0.8l4.5,4.5
		c0.1,0.1,0.2,0.3,0.2,0.4c0,0.3-0.3,0.6-0.6,0.6c-0.2,0-0.3-0.1-0.4-0.2l-4.5-4.5l-0.8,0.8l4.5,4.5c0.1,0.1,0.2,0.3,0.2,0.4
		c0,0.3-0.3,0.6-0.6,0.6c-0.2,0-0.3-0.1-0.4-0.2l-0.6-0.6c0-0.1,0-0.2,0-0.2c0-0.9-0.7-1.6-1.6-1.7c0-0.9-0.7-1.6-1.6-1.6
		c0-0.9-0.7-1.6-1.6-1.6c0-0.9-0.8-1.6-1.7-1.6c-0.1,0-0.2,0-0.2,0l-1.5-1.5l2.2-5.5h3.2l-2,2c-0.3,0.3-0.5,0.7-0.5,1.2
		c0,0.9,0.8,1.7,1.7,1.7c0.4,0,0.9-0.2,1.2-0.5l1.4-1.4c0.3-0.3,0.8-0.3,1.1,0l1.3,1.1c0.4,0.4,0.9,0.7,1.4,0.9l3.6,3.6
		c0.1,0.1,0.2,0.3,0.2,0.4C61.8,17.5,61.6,17.8,61.2,17.8z M62.4,15.9l-2.2-2.2c0.2,0,0.4,0,0.6,0v-1.1c-1.2,0-2.4-0.5-3.4-1.3
		l-1.3-1.1c-0.7-0.6-1.9-0.6-2.6,0.1l-1.4,1.4c-0.1,0.1-0.3,0.2-0.4,0.2c-0.3,0-0.6-0.3-0.6-0.6c0-0.2,0.1-0.3,0.2-0.4l2-2
		c0.6-0.6,1.5-0.8,2.3-0.6l4.7,1.4l2.8,5.5L62.4,15.9z M64.8,16l-3.3-6.5l2.4-0.9l3.3,6.2L64.8,16z M70.9,17.5L70.1,18l-5.2-9.9
		l6.1-2.4V17.5z"/>
	<circle class="st0" cx="58" cy="0.9" r="0.5"/>
	<circle class="st0" cx="45.9" cy="23.5" r="0.5"/>
	<circle class="st0" cx="48" cy="25.1" r="0.5"/>
	<circle class="st0" cx="50.3" cy="26.4" r="0.5"/>
	<circle class="st0" cx="52.8" cy="27.1" r="0.5"/>
	<circle class="st0" cx="60.5" cy="1.6" r="0.5"/>
	<circle class="st0" cx="62.8" cy="2.9" r="0.5"/>
	<path class="st1" d="M65.1,2.2v2.8h-2.8"/>
	<path class="st1" d="M43.6,23.2v-2.2h2.2"/>
	<path class="st2" d="M46.3,4.1c1.5-1.3,2.5-1.9,4.3-2.6c1.9-0.8,3.2-0.9,5.3-0.9"/>
	<path class="st2" d="M66.6,21.4c-1.1,1.8-3.2,3.5-4.9,4.4c-1.8,1-3.7,1.6-6.3,1.7"/>
</g>
</svg>
