<?xml version="1.0" encoding="utf-8"?>
<!-- Generator: Adobe Illustrator 26.0.3, SVG Export Plug-In . SVG Version: 6.00 Build 0)  -->
<svg version="1.1" id="Capa_1" xmlns="http://www.w3.org/2000/svg" xmlns:xlink="http://www.w3.org/1999/xlink" x="0px" y="0px"
	 viewBox="0 0 28 29" style="enable-background:new 0 0 28 29;" xml:space="preserve">
<style type="text/css">
	.st0{fill:#FFFFFF;}
	.st1{fill:none;stroke:#FFFFFF;stroke-width:1.5;}
	.st2{fill:none;stroke:#FFFFFF;stroke-width:1.5;stroke-linecap:round;stroke-linejoin:round;}
</style>
<g>
	<path class="st0" d="M14,1.8c6.9,0,12.5,5.6,12.5,12.5S20.9,26.8,14,26.8S1.5,21.2,1.5,14.3S7.1,1.8,14,1.8 M14,0.3
		c-7.7,0-14,6.3-14,14s6.3,14,14,14s14-6.3,14-14S21.7,0.3,14,0.3L14,0.3z"/>
</g>
<path class="st1" d="M17,8.7h-6c-1.7,0-3,1.3-3,3v6c0,1.7,1.3,3,3,3h6c1.7,0,3-1.3,3-3v-6C20,10.1,18.7,8.7,17,8.7z"/>
<path class="st2" d="M16.4,14.3c0.1,0.5,0,1-0.2,1.5c-0.2,0.4-0.6,0.8-1.1,1c-0.5,0.2-1,0.3-1.5,0.2s-1-0.3-1.3-0.7
	c-0.4-0.4-0.6-0.8-0.7-1.3s0-1,0.2-1.5c0.2-0.5,0.6-0.8,1-1.1s1-0.3,1.5-0.2c0.5,0.1,1,0.3,1.3,0.7C16.1,13.4,16.3,13.8,16.4,14.3z"
	/>
</svg>
