<?xml version="1.0" encoding="utf-8"?>
<!-- Generator: Adobe Illustrator 26.0.3, SVG Export Plug-In . SVG Version: 6.00 Build 0)  -->
<svg version="1.1" id="Capa_1" xmlns="http://www.w3.org/2000/svg" xmlns:xlink="http://www.w3.org/1999/xlink" x="0px" y="0px"
	 viewBox="0 0 28 29" style="enable-background:new 0 0 28 29;" xml:space="preserve">
<style type="text/css">
	.st0{fill:#FFFFFF;}
	.st1{fill:none;stroke:#FFFFFF;stroke-width:1.5;stroke-linecap:round;stroke-linejoin:round;}
</style>
<g>
	<path class="st0" d="M14,1.8c6.9,0,12.5,5.6,12.5,12.5S20.9,26.8,14,26.8S1.5,21.2,1.5,14.3S7.1,1.8,14,1.8 M14,0.3
		c-7.7,0-14,6.3-14,14s6.3,14,14,14s14-6.3,14-14S21.7,0.3,14,0.3L14,0.3z"/>
</g>
<path class="st1" d="M8.4,9.1h11.2c0.8,0,1.4,0.6,1.4,1.4v8.4c0,0.8-0.6,1.4-1.4,1.4H8.4c-0.8,0-1.4-0.6-1.4-1.4v-8.4
	C7,9.8,7.6,9.1,8.4,9.1z"/>
<path class="st1" d="M21,10.5l-7,4.9l-7-4.9"/>
</svg>
