<?xml version="1.0" encoding="utf-8"?>
<!-- Generator: Adobe Illustrator 26.0.2, SVG Export Plug-In . SVG Version: 6.00 Build 0)  -->
<svg version="1.1" xmlns="http://www.w3.org/2000/svg" xmlns:xlink="http://www.w3.org/1999/xlink" x="0px" y="0px"
	 viewBox="0 0 40.2 33.2" style="enable-background:new 0 0 40.2 33.2;" xml:space="preserve">
<style type="text/css">
	.st0{fill:#FFFFFF;}
</style>
<g id="Capa_2">
</g>
<g id="Capa_1">
	<path class="st0" d="M39.8,15c-0.3-0.3-0.6-0.4-1-0.4l-1.6,0c-0.5-2.2-1.5-4.2-2.9-5.9c-1.4-1.6-3.2-2.9-5.2-3.7
		c-0.4-1.6-1.2-2.8-2.4-3.8C25.3,0.2,24,0,23.9,0c-0.2,0-0.4,0-0.6,0.2s-0.3,0.3-0.3,0.5V4H21c-0.6-2-2.5-3.3-4.6-3.3
		c-2.2,0-4.1,1.4-4.6,3.4C8.6,4.5,5.7,6,3.6,8.3l0,0c0,0,0,0,0,0l0,0h0C1.2,10.8,0,14,0,17.3c0,7.4,3.9,13.4,5.1,15.1
		c0.4,0.5,1,0.9,1.7,0.9h2.7c1.2,0,2.1-0.9,2.1-2v-0.7c0.7,0.1,1.3,0.1,2,0.1h6.1v0.6c0,1.1,0.9,2,2.1,2h3c1,0,1.8-0.7,2-1.6
		l0.3-1.4c4.1-1,7.5-3.8,9.2-7.6h2.5c0.8,0,1.4-0.6,1.4-1.4V16C40.2,15.6,40.1,15.2,39.8,15z M13,5.4c0-1.8,1.5-3.3,3.3-3.3
		s3.3,1.5,3.3,3.3c0,0.4-0.1,0.9-0.3,1.3h-6.2C13.1,6.2,13,5.8,13,5.4z M37.5,18c0-0.2-0.1-0.4-0.2-0.5c-0.1-0.1-0.3-0.2-0.5-0.2
		c0,0,0,0,0,0c-0.4,0-0.7,0.3-0.7,0.7c-0.3,4.9-3.7,9.2-8.5,10.7l0.9-3.9c0-0.2,0-0.4-0.1-0.5c-0.1-0.2-0.3-0.3-0.5-0.3
		c-0.4-0.1-0.8,0.2-0.9,0.6l-1.5,6.9c-0.1,0.3-0.3,0.5-0.6,0.5h-3c-0.3,0-0.6-0.3-0.6-0.6v-2.6c0-0.4-0.3-0.7-0.7-0.7
		s-0.7,0.3-0.7,0.7v0.6h-6.1c-0.7,0-1.3-0.1-2-0.2v-4.4c0-0.4-0.3-0.7-0.7-0.7s-0.7,0.3-0.7,0.7v6.6c0,0.3-0.3,0.6-0.6,0.6H6.9
		c-0.2,0-0.4-0.1-0.5-0.3C5.2,30,1.5,24.3,1.5,17.3c0-3,1.1-5.8,3.1-8l0,0c1.8-2,4.3-3.3,6.9-3.7c0,0.3,0.1,0.7,0.2,1h-0.1
		c-0.4,0-0.7,0.3-0.7,0.7s0.3,0.7,0.7,0.7h9.5c0.4,0,0.7-0.3,0.7-0.7s-0.3-0.7-0.7-0.7H21c0.1-0.4,0.2-0.8,0.2-1.2h1.9v1.3
		c0,0.4,0.3,0.7,0.7,0.7s0.7-0.3,0.7-0.7v-5c0.6,0.2,1.4,0.7,2,1.5c0.8,1,1.3,2.5,1.3,4.2c0,0.4,0.3,0.7,0.7,0.7s0.7-0.3,0.7-0.7
		c0-0.2,0-0.4,0-0.7c1.5,0.7,2.8,1.7,3.8,3c1.3,1.5,2.2,3.3,2.6,5.3c0.1,0.6,0.7,1.1,1.4,1.1h0h1.6v5.2h-1.8
		C37.2,20.2,37.4,19.1,37.5,18z"/>
	<g>
		<path class="st0" d="M32.6,16c-0.3,0-0.6-0.2-0.7-0.4c-0.2-0.5-0.7-0.8-1.3-0.8c-0.6,0-1.1,0.3-1.3,0.8c-0.2,0.4-0.6,0.5-1,0.4
			c-0.4-0.2-0.5-0.6-0.4-1c0.5-1,1.5-1.7,2.7-1.7s2.2,0.7,2.7,1.7c0.2,0.4,0,0.8-0.4,1C32.8,16,32.7,16,32.6,16z"/>
	</g>
	<path class="st0" d="M19.3,17.6c-0.7-0.4-1.5-0.7-2.2-0.9v-3c0.5,0.1,1,0.2,1.4,0.4c0.3,0.2,0.5,0.4,0.5,0.7c0,0.4,0.3,0.7,0.7,0.7
		s0.7-0.3,0.7-0.7c0-0.6-0.4-1.3-1-1.7c-0.6-0.4-1.5-0.7-2.4-0.8c0-0.4-0.3-0.7-0.7-0.7s-0.7,0.3-0.7,0.7c-0.9,0.1-1.8,0.4-2.4,0.8
		c-0.7,0.5-1,1.1-1,1.7c0,0.9,0.4,1.5,1.2,2.1c0.7,0.4,1.5,0.7,2.2,0.9v3c-0.5-0.1-1-0.2-1.4-0.4c-0.3-0.2-0.5-0.4-0.5-0.7
		c0-0.4-0.3-0.7-0.7-0.7s-0.7,0.3-0.7,0.7c0,0.6,0.4,1.3,1,1.7c0.6,0.4,1.5,0.7,2.4,0.8c0,0.4,0.3,0.7,0.7,0.7s0.7-0.3,0.7-0.7
		c0.9-0.1,1.8-0.4,2.4-0.8c0.7-0.5,1-1.1,1-1.7C20.5,18.8,20.1,18.2,19.3,17.6z M19,19.7c0,0.2-0.2,0.5-0.5,0.7
		c-0.4,0.2-0.8,0.4-1.4,0.4v-2.6c0.7,0.2,1.2,0.4,1.5,0.7C18.9,19.1,19,19.4,19,19.7z M13.7,14.8c0-0.2,0.2-0.5,0.5-0.7
		c0.4-0.2,0.8-0.4,1.4-0.4v2.6c-0.7-0.2-1.2-0.4-1.5-0.7C13.8,15.4,13.7,15.2,13.7,14.8z"/>
</g>
</svg>
