<?xml version="1.0" encoding="utf-8"?>
<!-- Generator: Adobe Illustrator 26.0.2, SVG Export Plug-In . SVG Version: 6.00 Build 0)  -->
<svg version="1.1" id="Capa_1" xmlns="http://www.w3.org/2000/svg" xmlns:xlink="http://www.w3.org/1999/xlink" x="0px" y="0px"
	 viewBox="0 0 110.8 28" style="enable-background:new 0 0 110.8 28;" xml:space="preserve">
<style type="text/css">
	.st0{fill:#E3B873;}
</style>
<path class="st0" d="M79.5,13.2H110c0.4,0,0.8,0.3,0.8,0.8l0,0c0,0.4-0.3,0.8-0.8,0.8H79.5c-0.4,0-0.8-0.3-0.8-0.8l0,0
	C78.8,13.6,79.1,13.2,79.5,13.2z"/>
<path class="st0" d="M0.8,13.2h30.5c0.4,0,0.8,0.3,0.8,0.8v0l0,0c0,0.4-0.3,0.8-0.8,0.8l0,0H0.8C0.3,14.8,0,14.4,0,14c0,0,0,0,0,0
	l0,0C0,13.6,0.3,13.2,0.8,13.2C0.8,13.2,0.8,13.2,0.8,13.2z"/>
<path class="st0" d="M67.8,21.1c-0.6-0.4-1.3-0.6-1.9-0.7c-2.6-1.7-4.2-2.9-5.2-3.9l-3-3l1.8-2c0.3,0.2,0.7,0.3,1.1,0.4
	c0.3,0,0.5,0,0.7,0c0.4,0,0.5,0,0.8,0.3c-0.2,0.1-0.3,0.4-0.3,0.6s0.1,0.5,0.3,0.7l1.6,1.6c0.2,0.3,0.6,0.4,1,0.4s0.7-0.1,1-0.5
	l3.3-3.3c0.3-0.2,0.4-0.6,0.4-1c0-0.4-0.1-0.7-0.4-1l-1.6-1.6C67.1,8.1,66.9,8,66.7,8c-0.2,0-0.5,0.1-0.7,0.3
	c-0.4-0.3-0.4-0.4-0.4-0.8c0-0.2,0-0.4-0.1-0.7c-0.1-0.7-0.4-1.3-0.9-1.8l-1.7-1.7c-1-1-1.4-1.4-2.7-2c-2.7-1.3-5.5-1-9.5,0.8
	c-0.2,0.1-0.3,0.3-0.3,0.5c0,0.2,0.2,0.4,0.5,0.4h0.6c2.1,0,3.1,0,5,1.9c0.8,0.8,0.8,2.1,0.1,3c-0.1,0-0.2,0.1-0.2,0.1l-2.1,2.3
	l-1.6-1.6c-1.7-1.7-2.9-3.4-3.9-5.2c0-0.9-0.4-1.8-1.1-2.4c-0.8-0.8-1.9-1.2-3-1.1c-0.1,0-0.3,0.1-0.3,0.2c-0.1,0.1-0.1,0.3,0,0.5
	L45.8,3c-0.3,0.6-0.9,1-1.6,0.9l-1.4-2.2c0-0.1-0.2-0.2-0.4-0.2c-0.1,0-0.3,0-0.4,0.2c-1.1,1.7-0.7,3.9,1,5.1
	c0.6,0.4,1.2,0.6,1.9,0.7c0,0,0,0,0,0c1.8,0.9,3.5,2.1,5.2,3.9l1.7,1.7l-9.9,11.1c-0.4,0.4-0.6,0.9-0.6,1.4c0,0.5,0.2,1,0.6,1.4
	l0.7,0.7c0.4,0.3,0.8,0.5,1.3,0.5c0.5,0,1-0.2,1.4-0.6l9.9-11.1l2.9,2.9c1,1,2.2,2.7,3.9,5.2c0.1,0.9,0.4,1.7,1.1,2.4
	c0.7,0.7,1.6,1.1,2.6,1.1c0.1,0,0.3,0,0.4,0c0.1,0,0.3-0.1,0.4-0.2c0.1-0.1,0.1-0.3,0-0.5L65,24.9c0.3-0.6,0.9-1,1.6-0.9l1.3,2.2
	c0,0.1,0.2,0.2,0.4,0.2c0.2,0,0.3-0.1,0.4-0.2C69.9,24.5,69.4,22.3,67.8,21.1z M57.2,4.1c-1.5-1.4-2.6-1.9-3.9-2.1
	c2.7-0.8,4.6-0.8,6.6,0.1c1.1,0.5,1.5,0.8,2.5,1.8L64,5.6c0.4,0.4,0.6,0.8,0.7,1.3c0,0.2,0,0.4,0,0.6c0,0.5,0,0.9,0.6,1.4
	c0.2,0.2,0.5,0.3,0.7,0.3c0.3,0,0.5-0.1,0.7-0.3l1.6,1.6c0.1,0.1,0.1,0.2,0.1,0.3c0,0.1,0,0.2-0.1,0.3L65,14.5
	c-0.2,0.2-0.5,0.2-0.7,0l-1.6-1.6c0.2-0.1,0.3-0.4,0.2-0.7c0-0.2-0.1-0.5-0.3-0.7c-0.6-0.6-0.9-0.6-1.4-0.6c-0.1,0-0.3,0-0.6,0
	c-0.5,0-0.9-0.3-1.3-0.7l-2-2C58.4,6.9,58.3,5.2,57.2,4.1z M42.5,2.9l1,1.7c0.1,0.1,0.2,0.2,0.4,0.2h0.2c1.1,0,2.1-0.5,2.5-1.4
	l0.1-0.2c0.1-0.1,0.1-0.3,0-0.4l-1-1.8c0.6,0.1,1.1,0.4,1.5,0.8C47.7,2.3,48,2.9,48,3.7c0,0,0,0.1,0,0.1c0,0.2,0,0.4-0.1,0.6
	c-0.2,0.7-0.6,1.3-1.2,1.7c-0.9,0.6-2.2,0.6-3.1,0C42.6,5.3,42.2,4.1,42.5,2.9z M50.8,10.7c-1.4-1.4-2.8-2.6-4.3-3.5
	C46.8,7.1,47,7,47.3,6.9C48,6.4,48.4,5.8,48.7,5c0.9,1.5,2,2.9,3.4,4.3l1.6,1.6l-1.3,1.4L50.8,10.7z M44.6,26.7
	c-0.4,0.4-1,0.4-1.4,0l-0.7-0.6c-0.2-0.2-0.3-0.4-0.3-0.7c0-0.3,0.1-0.5,0.3-0.7l0.3-0.3l0.7,0.7c0.1,0.1,0.2,0.1,0.3,0.1
	s0.2,0,0.3-0.1c0.2-0.2,0.2-0.5,0-0.7l-0.7-0.7l0.6-0.7l0.7,0.7c0.1,0.1,0.2,0.1,0.3,0.1s0.2,0,0.3-0.1c0.2-0.2,0.2-0.5,0-0.7
	l-0.8-0.8L56.8,9l2,2l-1.9,2.2c-0.1,0-0.1,0.1-0.2,0.1l-1.9,2.1c-0.1,0.1-0.1,0.1-0.1,0.2L44.6,26.7z M55.8,15.6l1.3-1.4l3,3
	c0.8,0.9,2.3,2,4.4,3.4c-0.3,0.1-0.6,0.2-0.8,0.4c-0.6,0.4-1,0.9-1.3,1.4c0,0,0,0,0,0c0,0,0,0.1,0,0.1c0,0,0,0.1-0.1,0.1
	c0,0,0,0.1,0,0.1c0,0,0,0,0,0c0,0,0,0.1,0,0.1c-0.3-0.4-0.5-0.8-0.8-1.1l0.6-0.6c0.2-0.2,0.2-0.5,0-0.7c-0.2-0.2-0.5-0.2-0.7,0
	l-0.5,0.5c-0.2-0.3-0.4-0.5-0.6-0.7l0.4-0.4c0.2-0.2,0.2-0.5,0-0.7c-0.2-0.2-0.5-0.2-0.7,0l-0.4,0.4c-0.3-0.4-0.7-0.8-0.9-1.1
	L55.8,15.6z M68.3,24.9l-1-1.7c-0.1-0.1-0.2-0.2-0.4-0.2h-0.2c-1.1-0.1-2.1,0.5-2.5,1.4l-0.1,0.2c-0.1,0.1-0.1,0.3,0,0.4l1,1.8
	c-0.6-0.1-1.1-0.4-1.5-0.8c-0.5-0.5-0.8-1.2-0.8-1.8c0,0,0-0.1,0-0.1c0-0.6,0.2-1.1,0.5-1.6c0.2-0.3,0.5-0.5,0.7-0.7
	c0.5-0.3,1-0.5,1.5-0.5c0.6,0,1.1,0.2,1.6,0.5C68.2,22.6,68.6,23.8,68.3,24.9z"/>
</svg>
