<?xml version="1.0" encoding="utf-8"?>
<!-- Generator: Adobe Illustrator 26.0.3, SVG Export Plug-In . SVG Version: 6.00 Build 0)  -->
<svg version="1.1" id="Capa_1" xmlns="http://www.w3.org/2000/svg" xmlns:xlink="http://www.w3.org/1999/xlink" x="0px" y="0px"
	 viewBox="0 0 33 33" style="enable-background:new 0 0 33 33;" xml:space="preserve">
<style type="text/css">
	
		.st0{fill-rule:evenodd;clip-rule:evenodd;fill:#FFFFFF;stroke:#FFFFFF;stroke-width:0.5;stroke-linecap:round;stroke-linejoin:round;}
	.st1{fill:#FFFFFF;stroke:#FFFFFF;stroke-width:0.25;}
</style>
<path class="st0" d="M3.3,1.3c0-0.2,0.2-0.4,0.4-0.4h28.7c0.2,0,0.4,0.2,0.4,0.4v27.6c0,0.2-0.2,0.4-0.4,0.4c-0.2,0-0.4-0.2-0.4-0.4
	V1.6H3.6C3.4,1.6,3.3,1.5,3.3,1.3z"/>
<path class="st1" d="M3.7,29.4h0.1v-0.1l0-23.8l1.6,1.6c0.2,0.2,0.5,0.2,0.7,0c0.2-0.2,0.2-0.5,0-0.7L3.6,3.9
	c-0.2-0.2-0.5-0.2-0.7,0L0.4,6.4C0.2,6.6,0.2,7,0.4,7.2c0.2,0.2,0.5,0.2,0.7,0l1.6-1.6v23.8v0.1h0.1H3.7z"/>
<path class="st1" d="M2.8,29.7v0.1h0.1h23.9l-1.6,1.6c-0.2,0.2-0.2,0.5,0,0.7c0.2,0.2,0.5,0.2,0.7,0l2.5-2.5c0.2-0.2,0.2-0.5,0-0.7
	l-2.5-2.5c-0.2-0.2-0.5-0.2-0.7,0c-0.2,0.2-0.2,0.5,0,0.7l1.6,1.6H2.9H2.8v0.1V29.7z"/>
<path class="st0" d="M14.2,1c0.2,0.2,0.2,0.4,0,0.6L9.4,6.3C9.3,6.4,9,6.4,8.9,6.3c-0.2-0.2-0.2-0.4,0-0.6L13.6,1
	C13.8,0.8,14,0.8,14.2,1z"/>
<path class="st0" d="M32.5,19.8c0.2,0.2,0.2,0.4,0,0.6l-4.3,4.3c-0.2,0.2-0.4,0.2-0.6,0c-0.2-0.2-0.2-0.4,0-0.6l4.3-4.3
	C32.1,19.7,32.3,19.7,32.5,19.8z"/>
<path class="st0" d="M20.1,1c0.2,0.2,0.2,0.4,0,0.6L9.8,11.9c-0.2,0.2-0.4,0.2-0.6,0c-0.2-0.2-0.2-0.4,0-0.6L19.5,1
	C19.7,0.8,19.9,0.8,20.1,1z"/>
<path class="st0" d="M32.6,13.2c0.2,0.2,0.2,0.4,0,0.6l-10,10c-0.2,0.2-0.4,0.2-0.6,0c-0.2-0.2-0.2-0.4,0-0.6l10-10
	C32.2,13.1,32.4,13.1,32.6,13.2z"/>
<path class="st0" d="M26.4,1.1c0.2,0.2,0.2,0.4,0,0.6L9.9,17.9c-0.2,0.2-0.4,0.2-0.6,0c-0.2-0.2-0.2-0.4,0-0.6L25.8,1.1
	C26,1,26.3,1,26.4,1.1z"/>
<path class="st0" d="M32.6,7c0.2,0.2,0.2,0.4,0,0.6L16,24.2c-0.2,0.2-0.4,0.2-0.6,0c-0.2-0.2-0.2-0.4,0-0.6L32,7
	C32.2,6.9,32.4,6.9,32.6,7z"/>
<path class="st0" d="M32.3,1.1c0.2,0.2,0.2,0.4,0,0.6L9.7,24.3c-0.2,0.2-0.4,0.2-0.6,0c-0.2-0.2-0.2-0.4,0-0.6L31.8,1.1
	C31.9,1,32.2,1,32.3,1.1z"/>
</svg>
